# xmcd
#
# Track frame offsets:
#	150
#	16995
#	42290
#	68706
#	92968
#	114744
#	129370
#	153139
#	171288
#	199732
#	222683
#	254661
#
# Disc length: 3833 seconds
#
# Revision: 0
# Processed by: cddbd v1.5.2PL0 Copyright (c) Steve Scherf et al.
# Submitted via: EZCDAudioConverter 2.1.7.1
#
DISCID=ad0ef70c
DTITLE=Various Artist - The Blue Collection (Bonus Mix)
DYEAR=1900
DGENRE=
TTITLE0=Atella - The Monster
TTITLE1=Michoacan - The Kingdom Of Heaven Is At Hand
TTITLE2=Satin Jackets - Night Keys
TTITLE3=Blamma! Blamma! featuring Kristina Train - Zsa Zsa
TTITLE4=Volta Cab - Smoke Some Kill
TTITLE5=Blende - Rikki [Le Crayon Remix]
TTITLE6=Julian Sanza featuring Future Feelings - The Feeling
TTITLE7=Nteibint featuring Stella - Never Without You
TTITLE8=Freeform Five featuring Róisín Murphy - Leviathan
TTITLE9=Deadbots - UFRST
TTITLE10=Eelke Kleijn - A Tale Of Two Lovers
TTITLE11=Pete Oak featuring Emeron and Fox - N.O.V.A.
EXTD=
EXTT0=
EXTT1=
EXTT2=
EXTT3=
EXTT4=
EXTT5=
EXTT6=
EXTT7=
EXTT8=
EXTT9=
EXTT10=
EXTT11=
PLAYORDER=
